<?xml version="1.0" encoding="UTF-8" standalone="no"?>
<!-- Created with Inkscape (http://www.inkscape.org/) -->

<svg
   width="509.67099"
   height="316.3237"
   viewBox="0 0 134.85045 83.693979"
   version="1.1"
   id="svg5"
   inkscape:version="1.1.2 (0a00cf5339, 2022-02-04, custom)"
   sodipodi:docname="logo-colour-scheme.svg"
   xmlns:inkscape="http://www.inkscape.org/namespaces/inkscape"
   xmlns:sodipodi="http://sodipodi.sourceforge.net/DTD/sodipodi-0.dtd"
   xmlns="http://www.w3.org/2000/svg"
   xmlns:svg="http://www.w3.org/2000/svg">
  <sodipodi:namedview
     id="namedview7"
     pagecolor="#ffffff"
     bordercolor="#666666"
     borderopacity="1.0"
     inkscape:pageshadow="2"
     inkscape:pageopacity="0.0"
     inkscape:pagecheckerboard="0"
     inkscape:document-units="mm"
     showgrid="false"
     inkscape:zoom="1.4859428"
     inkscape:cx="208.28527"
     inkscape:cy="155.79335"
     inkscape:window-width="1920"
     inkscape:window-height="1002"
     inkscape:window-x="1920"
     inkscape:window-y="37"
     inkscape:window-maximized="1"
     inkscape:current-layer="layer1"
     units="px"
     showguides="true"
     inkscape:guide-bbox="true"
     fit-margin-top="8"
     lock-margins="true"
     fit-margin-left="8"
     fit-margin-right="8"
     fit-margin-bottom="8" />
  <defs
     id="defs2" />
  <g
     inkscape:label="Foreground"
     inkscape:groupmode="layer"
     id="layer1"
     transform="translate(-11.765605,-4.1179463)">
    <rect
       style="fill:#ee4b6a;fill-opacity:1;stroke-width:0.0801539"
       id="rect19168-3-7"
       width="6.1914062"
       height="28.463055"
       x="65.092659"
       y="42.601261"
       ry="1.1092161"
       inkscape:label="R Space Fill" />
    <g
       aria-label="yearebase"
       id="text2056"
       style="font-size:92.6042px;line-height:1.25;fill:#ee4b6a;fill-opacity:1;stroke-width:0.264583"
       inkscape:label="Text">
      <path
         d="m 141.39896,71.063797 h -7.40834 q -1.29645,0 -2.2225,-0.833438 -0.83343,-0.926042 -0.83343,-2.222501 V 24.020862 q 0,-1.296459 0.83343,-2.222501 0.92605,-0.926042 2.2225,-0.926042 h 7.40834 q 1.29646,0 2.1299,0.926042 0.92604,0.926042 0.92604,2.222501 v 25.095739 h -7.31573 v 15.742714 h 1.11125 V 50.227851 h 6.20448 v 17.780007 q 0,1.296459 -0.92604,2.222501 -0.83344,0.833438 -2.1299,0.833438 z M 137.13917,42.91212 h 1.11125 V 27.076801 h -1.11125 z"
         style="font-family:Outward;-inkscape-font-specification:Outward;fill:#ee4b6a;fill-opacity:1"
         id="path24285"
         inkscape:label="e3" />
      <path
         d="m 126.76741,71.063797 h -7.40834 q -1.29646,0 -2.2225,-0.833438 -0.83344,-0.926042 -0.83344,-2.222501 V 50.227851 h 6.20448 v 14.631464 h 1.11125 V 49.116601 h -4.25979 q -1.29646,0 -2.2225,-0.926042 -0.83344,-0.926042 -0.83344,-2.222501 V 24.020862 q 0,-1.296459 0.83344,-2.222501 0.92604,-0.926042 2.2225,-0.926042 h 7.40834 q 1.29646,0 2.12989,0.926042 0.92605,0.926042 0.92605,2.222501 v 17.780007 h -6.20449 V 27.076801 h -1.11125 V 42.91212 h 4.2598 q 1.29646,0 2.12989,0.926042 0.92605,0.833437 0.92605,2.129896 v 22.0398 q 0,1.296459 -0.92605,2.222501 -0.83343,0.833438 -2.12989,0.833438 z"
         style="font-family:Outward;-inkscape-font-specification:Outward;fill:#ee4b6a;fill-opacity:1"
         id="path24283"
         inkscape:label="s" />
      <path
         d="m 115.19179,71.063797 h -10.46427 q -1.29646,0 -2.2225,-0.833438 -0.83344,-0.926042 -0.83344,-2.222501 v -22.0398 q 0,-1.296459 0.83344,-2.129896 0.92604,-0.926042 2.2225,-0.926042 h 4.25979 V 27.076801 h -1.11125 v 14.724068 h -6.20448 V 24.020862 q 0,-1.296459 0.83344,-2.222501 0.92604,-0.926042 2.2225,-0.926042 h 7.40833 q 1.29646,0 2.1299,0.926042 0.92604,0.926042 0.92604,2.222501 z m -7.31573,-6.204482 h 1.11125 V 49.116601 h -1.11125 z"
         style="font-family:Outward;-inkscape-font-specification:Outward;fill:#ee4b6a;fill-opacity:1"
         id="path24281"
         inkscape:label="a2" />
      <path
         d="M 97.504307,71.063797 H 87.040032 V 6.2408554 h 6.204482 V 20.872319 h 4.259793 q 1.296459,0 2.129897,0.926042 0.926046,0.926042 0.926046,2.222501 v 43.986996 q 0,1.296459 -0.926046,2.222501 -0.833438,0.833438 -2.129897,0.833438 z m -4.259793,-6.204482 h 1.11125 V 27.076801 h -1.11125 z"
         style="font-family:Outward;-inkscape-font-specification:Outward;fill:#ee4b6a;fill-opacity:1"
         id="path24279"
         inkscape:label="b" />
      <path
         d="M 77.50171,44.02337 V 25.96555 h 3.333751 v 18.05782 z m 1.11125,-1.11125 h 1.111251 V 27.076801 H 78.61296 Z M 72.408479,24.020862 q 0,-1.296459 0.926042,-2.222501 0.926042,-0.926042 2.222501,-0.926042 h 7.315732 q 1.296458,0 2.129896,0.926042 0.926042,0.926042 0.926042,2.222501 V 49.116601 H 78.61296 v 15.742714 h 1.111251 V 50.227851 h 6.204481 v 17.687403 q 0,1.296459 -0.926042,2.222501 -0.833438,0.926042 -2.129896,0.926042 h -7.315732 q -1.296459,0 -2.222501,-0.926042 -0.926042,-0.926042 -0.926042,-2.222501 z m 1.11125,43.894392 q 0,0.833438 0.555625,1.481667 0.64823,0.555626 1.481668,0.555626 h 7.315732 q 0.833437,0 1.389063,-0.555626 0.555625,-0.648229 0.555625,-1.481667 V 51.339102 H 80.835461 V 65.970566 H 77.50171 V 48.005351 h 7.315732 V 24.020862 q 0,-0.833438 -0.555625,-1.389063 -0.555626,-0.648229 -1.389063,-0.648229 h -7.315732 q -0.833438,0 -1.481668,0.648229 -0.555625,0.555625 -0.555625,1.389063 z"
         style="font-weight:bold;fill:#ee4b6a;fill-opacity:1"
         id="path24277"
         inkscape:label="e2" />
      <path
         d="m 68.2412,20.872319 q 1.296459,0 2.129897,0.926042 0.926042,0.926042 0.926042,2.222501 V 41.800869 H 65.092657 V 27.076801 h -1.11125 V 71.063797 H 57.776925 V 20.872319 Z m 1.944688,3.148543 q 0,-0.833438 -0.555625,-1.389063 Q 69.074638,21.98357 68.2412,21.98357 h -9.353024 v 47.968977 h 3.98198 V 25.96555 h 3.333751 v 14.724069 h 3.981981 z"
         style="font-weight:bold;fill:#ee4b6a;fill-opacity:1"
         id="path24275"
         inkscape:label="r" />
      <path
         d="M 51.572358,47.912746 V 65.877962 H 48.238606 V 47.912746 Z m -1.111251,1.111251 h -1.11125 v 15.742714 h 1.11125 z M 43.145375,23.928258 q 0,-1.296459 0.926042,-2.129897 0.926042,-0.926042 2.222501,-0.926042 h 7.315732 q 1.296459,0 2.129897,0.926042 0.926042,0.833438 0.926042,2.129897 V 71.063797 H 46.293918 q -1.296459,0 -2.222501,-0.926042 -0.926042,-0.926042 -0.926042,-2.222501 V 45.968058 q 0,-1.296459 0.926042,-2.222501 0.926042,-0.926042 2.222501,-0.926042 h 4.167189 V 27.076801 h -1.11125 v 14.631464 h -6.204482 z m 1.111251,16.668756 h 3.98198 V 25.96555 h 3.333752 v 17.965216 h -5.27844 q -0.833438,0 -1.481667,0.648229 -0.555625,0.555625 -0.555625,1.389063 v 21.947196 q 0,0.833438 0.555625,1.481667 0.648229,0.555626 1.481667,0.555626 h 9.26042 V 23.928258 q 0,-0.833438 -0.555625,-1.389063 Q 54.443088,21.98357 53.60965,21.98357 h -7.315732 q -0.833438,0 -1.481667,0.555625 -0.555625,0.555625 -0.555625,1.389063 z"
         style="font-weight:bold;fill:#ee4b6a;fill-opacity:1"
         id="path24273"
         inkscape:label="a1" />
      <path
         d="m 38.978098,71.063797 h -7.408336 q -1.296459,0 -2.222501,-0.833438 -0.833437,-0.926042 -0.833437,-2.222501 V 24.020862 q 0,-1.296459 0.833437,-2.222501 0.926042,-0.926042 2.222501,-0.926042 h 7.408336 q 1.296459,0 2.129897,0.926042 0.926042,0.926042 0.926042,2.222501 v 25.095739 h -7.315732 v 15.742714 h 1.11125 V 50.227851 h 6.204482 v 17.780007 q 0,1.296459 -0.926042,2.222501 -0.833438,0.833438 -2.129897,0.833438 z M 34.718305,42.91212 h 1.11125 V 27.076801 h -1.11125 z"
         style="font-family:Outward;-inkscape-font-specification:Outward;fill:#ee4b6a;fill-opacity:1"
         id="path24271"
         inkscape:label="e1" />
      <path
         d="m 21.198004,20.872319 h 6.204481 v 61.767003 q 0,1.296459 -0.926042,2.129897 -0.926042,0.926042 -2.222501,0.926042 H 16.93821 q -1.296458,0 -2.2225,-0.926042 -0.833438,-0.833438 -0.833438,-2.129897 V 72.175047 h 6.204481 v 7.315732 h 1.111251 V 71.063797 H 16.93821 q -1.296458,0 -2.2225,-0.833438 -0.833438,-0.926042 -0.833438,-2.222501 V 20.872319 h 6.204481 v 43.986996 h 1.111251 z"
         style="font-family:Outward;-inkscape-font-specification:Outward;fill:#ee4b6a;fill-opacity:1"
         id="path24269"
         inkscape:label="y" />
    </g>
    <rect
       style="fill:#ee4b6a;fill-opacity:1;stroke-width:0.238854"
       id="rect19168"
       width="115.95087"
       height="13.496316"
       x="28.51055"
       y="72.182518"
       ry="3.1662242"
       inkscape:label="Underline" />
    <rect
       style="fill:#ee4b6a;fill-opacity:1;stroke-width:0.156919"
       id="rect19168-3-6"
       width="50.044441"
       height="13.496316"
       x="94.454948"
       y="6.2346129"
       ry="3.1662242"
       inkscape:label="Overline Right" />
    <rect
       style="fill:#ee4b6a;fill-opacity:1;stroke-width:0.188275"
       id="rect19168-3"
       width="72.042992"
       height="13.496316"
       x="13.882272"
       y="6.2346129"
       ry="3.1662242"
       inkscape:label="Overline Left" />
  </g>
</svg>
