<?xml version="1.0" encoding="UTF-8" standalone="no"?>
<!-- Created with Inkscape (http://www.inkscape.org/) -->

<svg
   width="500"
   height="300"
   viewBox="0 0 132.29166 79.375002"
   version="1.1"
   id="svg5"
   inkscape:version="1.1.2 (0a00cf5339, 2022-02-04, custom)"
   sodipodi:docname="ICantBelieveThisSorts.svg"
   xmlns:inkscape="http://www.inkscape.org/namespaces/inkscape"
   xmlns:sodipodi="http://sodipodi.sourceforge.net/DTD/sodipodi-0.dtd"
   xmlns="http://www.w3.org/2000/svg"
   xmlns:svg="http://www.w3.org/2000/svg">
  <sodipodi:namedview
     id="namedview7"
     pagecolor="#ffffff"
     bordercolor="#666666"
     borderopacity="1.0"
     inkscape:pageshadow="2"
     inkscape:pageopacity="0.0"
     inkscape:pagecheckerboard="0"
     inkscape:document-units="mm"
     showgrid="false"
     inkscape:zoom="1.4805976"
     inkscape:cx="207.6864"
     inkscape:cy="131.02817"
     inkscape:window-width="1920"
     inkscape:window-height="1006"
     inkscape:window-x="1920"
     inkscape:window-y="37"
     inkscape:window-maximized="1"
     inkscape:current-layer="layer3"
     units="px"
     width="200px"
     showguides="true"
     inkscape:guide-bbox="true" />
  <defs
     id="defs2" />
  <g
     inkscape:label="Sorted Items"
     inkscape:groupmode="layer"
     id="layer1">
    <rect
       style="fill:#000000;fill-opacity:1;stroke-width:0.138433"
       id="rect866-7-5"
       width="26.458336"
       height="26.458372"
       x="92.604164"
       y="31.258419"
       inkscape:label="Sorted Item 3" />
    <g
       aria-label="1"
       id="text43289-4-6"
       style="font-size:13.2292px;line-height:1.25;stroke-width:0.264583"
       inkscape:label="Sorted Item Number 3">
      <path
         d="m 103.97651,41.916487 v -0.413413 q 0.85912,-0.01292 1.46632,-0.503846 0.6072,-0.497387 0.94955,-1.20148 0.20025,0 0.25193,0.08397 0.0581,0.07751 0.0581,0.284221 v 7.409128 q 0,0.426331 0.23901,0.536144 0.24546,0.103353 1.20148,0.103353 h 0.19379 v 0.406953 q -1.12397,-0.03876 -2.23502,-0.03876 -0.22608,0 -2.04768,0.03876 v -0.406953 h 0.17441 q 0.94956,0 1.2144,-0.09043 0.26484,-0.09689 0.26484,-0.523225 0,-0.02584 -0.006,-0.07751 -0.006,-0.05168 -0.006,-0.07752 v -6.259324 q -0.80745,0.717013 -1.71824,0.729932 z"
         style="font-family:'CMU Serif Upright Italic';-inkscape-font-specification:'CMU Serif Upright Italic, ';fill:#ffffff"
         id="path86797" />
    </g>
    <rect
       style="fill:#000000;fill-opacity:1;stroke-width:0.138433"
       id="rect866-7"
       width="26.458336"
       height="26.458372"
       x="52.916668"
       y="31.258419"
       inkscape:label="Sorted Item 2" />
    <g
       aria-label="3"
       id="text43289-4"
       style="font-size:13.2292px;line-height:1.25;stroke-width:0.264583"
       inkscape:label="Sorted Item Number 2">
      <path
         d="m 63.206263,46.964371 q 0,-0.342357 0.200247,-0.490927 0.200246,-0.15503 0.413412,-0.15503 0.251923,0 0.426332,0.167949 0.180868,0.161489 0.180868,0.426332 0,0.251923 -0.174409,0.432791 -0.174408,0.174408 -0.432791,0.174408 -0.103353,0 -0.174408,-0.01292 0.213166,0.503847 0.587821,0.813906 0.374655,0.310059 0.691174,0.400493 0.322978,0.08398 0.652416,0.08398 0.290681,0 0.561983,-0.07751 0.271302,-0.08398 0.581361,-0.290681 0.31006,-0.213166 0.503847,-0.665336 0.193787,-0.458629 0.193787,-1.111046 0,-0.949557 -0.348817,-1.453403 -0.439251,-0.620119 -1.253157,-0.620119 h -0.400493 q -0.239004,0 -0.290681,-0.08397 -0.02584,-0.05168 -0.02584,-0.129192 0,-0.07751 0.05168,-0.129191 0.05814,-0.05814 0.322978,-0.05814 h 0.368196 q 0.949557,0 1.35005,-0.555523 0.406953,-0.555523 0.406953,-1.36297 0,-1.072288 -0.516766,-1.517999 -0.510306,-0.45217 -1.149803,-0.45217 -0.859123,0 -1.537378,0.549064 -0.671795,0.549063 -0.671795,1.330671 0,0.355277 0.187327,0.620119 0.187328,0.264843 0.490928,0.264843 0.239004,0 0.44571,-0.167949 0.213166,-0.174409 0.213166,-0.439251 0,-0.239004 -0.16149,-0.45863 -0.155029,-0.219625 -0.155029,-0.271302 0,-0.103353 0.08397,-0.122731 0.09043,-0.01938 0.193787,0.07106 0.342358,0.342357 0.342358,0.781608 0,0.406953 -0.297141,0.658876 -0.29714,0.251923 -0.665335,0.251923 -0.439251,0 -0.723472,-0.355276 -0.284221,-0.355276 -0.284221,-0.846204 0,-0.884961 0.736391,-1.517999 0.74285,-0.639497 1.828058,-0.639497 1.098127,0 1.834518,0.684714 0.736391,0.678255 0.736391,1.576135 0,0.671796 -0.413412,1.259617 -0.406953,0.581361 -1.253157,0.923718 0.794527,0.277762 1.227318,0.9108 0.439251,0.626578 0.439251,1.311292 0,1.007693 -0.865582,1.724706 -0.859123,0.710552 -2.047684,0.710552 -1.05937,0 -1.737625,-0.652416 Q 63.20626,47.79767 63.20626,46.964385 Z"
         style="font-family:'CMU Serif Upright Italic';-inkscape-font-specification:'CMU Serif Upright Italic, ';fill:#ffffff"
         id="path86776" />
    </g>
    <rect
       style="fill:#000000;fill-opacity:1;stroke-width:0.138433"
       id="rect866"
       width="26.458336"
       height="26.458332"
       x="13.229167"
       y="31.258419"
       inkscape:label="Sorted Item 1" />
    <g
       aria-label="5"
       id="text43289"
       style="font-size:13.2292px;line-height:1.25;stroke-width:0.264583"
       inkscape:label="Sorted Item Number 1">
      <path
         d="m 23.658916,46.942554 q 0,-0.368195 0.206706,-0.523225 0.213166,-0.161489 0.45217,-0.161489 0.264842,0 0.44571,0.187327 0.187328,0.180868 0.187328,0.45863 0,0.277761 -0.187328,0.465089 -0.180868,0.180868 -0.458629,0.180868 -0.14857,0 -0.226085,-0.02584 0.239004,0.75577 0.813906,1.123966 0.574902,0.361736 1.117506,0.361736 0.59428,0 0.956016,-0.322979 0.368196,-0.329438 0.542604,-0.697633 0.251923,-0.542604 0.251923,-1.679489 0,-0.75577 -0.122732,-1.278995 -0.116272,-0.523225 -0.503846,-0.89142 -0.342357,-0.316519 -0.736391,-0.316519 -1.020612,0 -1.640731,0.846203 -0.129192,0.187328 -0.251923,0.187328 -0.174409,0 -0.174409,-0.361736 v -3.849904 q 0,-0.355277 0.161489,-0.355277 0.03876,0 0.284222,0.103354 0.245463,0.09689 0.671795,0.200246 0.432791,0.09689 0.936638,0.09689 0.490927,0 0.923718,-0.09689 0.439251,-0.103353 0.678255,-0.200246 0.245464,-0.103354 0.284221,-0.103354 0.129192,0 0.135651,0.122732 0,0.16149 -0.29068,0.471549 -0.290681,0.3036 -0.917259,0.613659 -0.620119,0.3036 -1.317753,0.3036 -0.516765,0 -1.136884,-0.187328 v 2.590288 q 0.729931,-0.671795 1.679488,-0.671795 1.098127,0 1.80222,0.878501 0.710553,0.878502 0.710553,2.015386 0,1.272536 -0.865582,2.11228 -0.865583,0.839744 -2.021846,0.839744 -1.05937,0 -1.724705,-0.75577 -0.665336,-0.755769 -0.665336,-1.679487 z"
         style="font-family:'CMU Serif Upright Italic';-inkscape-font-specification:'CMU Serif Upright Italic, ';fill:#ffffff"
         id="path86755" />
    </g>
  </g>
  <g
     inkscape:groupmode="layer"
     id="layer2"
     inkscape:label="Indicators">
    <g
       aria-label="j"
       id="text5560-3"
       style="font-size:10.5833px;line-height:1.25;stroke-width:0.264583"
       inkscape:label="j Indicator"
       transform="matrix(1,0,0,1.0000014,0.12636024,2.2382579)">
      <path
         d="m 24.221111,66.641376 q 0,-0.222208 0.139526,-0.356566 0.144694,-0.129191 0.346231,-0.129191 0.201538,0 0.341064,0.134358 0.144693,0.139526 0.144693,0.351399 0,0.341063 -0.356566,0.465086 0.273884,0.103353 0.434081,0.108521 0.361733,0 0.645953,-0.335896 0.284219,-0.330728 0.284219,-1.136878 v -3.736194 q 0,-1.162716 -0.537433,-1.162716 -0.294555,0 -0.516763,0.21704 -0.21704,0.21704 -0.310057,0.470254 -0.08785,0.253214 -0.149861,0.496092 l -0.06201,0.242879 q -0.03101,0.05168 -0.09819,0.06201 -0.06201,0.0052 -0.103352,-0.04134 -0.03101,-0.04134 -0.01034,-0.253213 0.118856,-0.594278 0.434081,-1.012855 0.315225,-0.423746 0.847491,-0.423746 0.41341,0 0.82682,0.325561 0.418578,0.320393 0.418578,1.038693 v 3.694853 q 0,0.785479 -0.387572,1.224727 -0.485757,0.573607 -1.250566,0.573607 -0.444416,0 -0.764808,-0.227376 -0.315226,-0.227375 -0.315226,-0.589109 z m 1.881016,-7.539567 q -0.134358,-0.144694 -0.134358,-0.330729 0,-0.191202 0.134358,-0.341063 0.139526,-0.149861 0.341064,-0.149861 0.211873,0 0.346231,0.149861 0.139526,0.149861 0.139526,0.335896 0,0.180867 -0.139526,0.330728 -0.134358,0.149861 -0.335896,0.149861 -0.211873,0 -0.351399,-0.144693 z"
         style="font-family:'CMU Serif Upright Italic';-inkscape-font-specification:'CMU Serif Upright Italic, '"
         id="path35258" />
    </g>
    <g
       aria-label="i"
       id="text5560"
       style="font-size:10.5833px;line-height:1.25;stroke-width:0.264583"
       inkscape:label="i Indicator"
       transform="matrix(1,0,0,1.0000014,0,7.2290708)">
      <path
         d="m 24.644158,17.34832 q 0,-0.315225 0.07235,-0.635618 0.07235,-0.320393 0.320393,-0.614947 0.253214,-0.294555 0.630451,-0.294555 0.454751,0 0.775144,0.341063 0.32556,0.335896 0.32556,0.780312 0,0.118855 -0.165364,1.32808 -0.160196,1.209225 -0.160196,1.410762 0,0.687295 0.41341,0.687295 0.07235,0 0.155029,-0.03101 0.08785,-0.03101 0.201537,-0.118856 0.118855,-0.09302 0.211873,-0.315225 0.09819,-0.222208 0.12919,-0.547768 0.01034,-0.06201 0.01034,-0.149861 0,-0.09302 0.0052,-0.139526 0.0052,-0.05168 0.0155,-0.09302 0.01033,-0.04134 0.03617,-0.06201 0.02584,-0.02067 0.08268,-0.02067 0.139526,0 0.134358,0.180867 0,0.315226 -0.07235,0.640786 -0.07235,0.320393 -0.32556,0.614948 -0.248046,0.289387 -0.614948,0.289387 -0.465086,0 -0.785479,-0.330728 -0.315225,-0.335896 -0.315225,-0.795815 0,-0.118855 0.155028,-1.322912 0.160197,-1.204057 0.160197,-1.405595 0,-0.69763 -0.403075,-0.69763 -0.07235,0 -0.160197,0.03101 -0.08268,0.03101 -0.206705,0.124023 -0.118855,0.08785 -0.21704,0.315226 -0.09302,0.227375 -0.124023,0.558103 0,0.04134 -0.0052,0.129191 -0.0052,0.08268 -0.01034,0.129191 -0.0052,0.04651 -0.0155,0.09818 -0.01034,0.05168 -0.03617,0.08268 -0.02584,0.02584 -0.08268,0.02584 -0.134358,0 -0.134358,-0.191203 z m 1.245398,-3.043732 q -0.134359,-0.144693 -0.134359,-0.330728 0,-0.191202 0.139526,-0.341063 0.144694,-0.149861 0.346231,-0.149861 0.211873,0 0.346231,0.149861 0.139526,0.149861 0.139526,0.335896 0,0.180866 -0.144693,0.330728 -0.139526,0.149861 -0.341064,0.149861 -0.211872,0 -0.351398,-0.144694 z"
         style="font-family:'CMU Serif Upright Italic';-inkscape-font-specification:'CMU Serif Upright Italic, '"
         id="path35237" />
    </g>
  </g>
  <g
     inkscape:groupmode="layer"
     id="layer3"
     inkscape:label="Condition">
    <g
       aria-label="A[i] &lt; A[j]?"
       id="text18477"
       style="font-size:7.40833px;line-height:1.25;stroke-width:0.264583"
       inkscape:label="Condition Text">
      <path
         d="m 40.341517,9.8160172 v -0.227893 q 0.238745,-0.00723 0.401526,-0.057878 0.162781,-0.05426 0.253215,-0.1627807 0.09405,-0.1085204 0.126607,-0.1700154 0.03256,-0.061495 0.07596,-0.1953368 0.0072,-0.021704 0.01809,-0.039791 l 1.472261,-4.2720887 q 0.06511,-0.1772501 0.184484,-0.1772501 0.119373,0 0.184485,0.1772501 l 1.595251,4.575946 q 0.07235,0.2134235 0.202572,0.2676838 0.130224,0.05426 0.524515,0.05426 h 0.03617 v 0.227893 q -0.42323,-0.021704 -0.958598,-0.021704 -0.53175,0 -1.07797,0.021704 v -0.227893 h 0.02894 q 0.575158,0 0.575158,-0.2134236 0,-0.086816 -0.405143,-1.2479853 h -1.830378 q -0.3545,1.0237097 -0.3545,1.0815873 0,0.050643 0.0217,0.1085204 0.0217,0.05426 0.07235,0.1193725 0.05426,0.061495 0.170015,0.1012858 0.119373,0.039791 0.282154,0.050643 v 0.227893 q -0.430465,-0.021704 -0.857312,-0.021704 -0.40876,0 -0.741557,0.021704 z m 1.479496,-1.9171948 h 1.674832 L 42.660238,5.4896682 Z"
         style="font-family:'CMU Serif Upright Italic';-inkscape-font-specification:'CMU Serif Upright Italic, '"
         id="path86818" />
      <path
         d="M 46.834658,11.6681 V 4.2597697 h 1.121378 v 0.1700154 h -0.622184 v 7.0682989 h 0.622184 V 11.6681 Z"
         style="font-family:'CMU Serif Upright Italic';-inkscape-font-specification:'CMU Serif Upright Italic, '"
         id="path86820" />
      <path
         d="m 48.433526,7.6239039 q 0,-0.2206583 0.05064,-0.4449339 0.05064,-0.2242756 0.224276,-0.4304645 0.17725,-0.2061888 0.441316,-0.2061888 0.318327,0 0.542602,0.238745 0.227893,0.2351276 0.227893,0.5462196 0,0.083199 -0.115755,0.9296586 -0.112138,0.8464596 -0.112138,0.9875362 0,0.4811073 0.289388,0.4811073 0.05064,0 0.108521,-0.021704 0.0615,-0.021704 0.141076,-0.083199 0.0832,-0.065112 0.148312,-0.2206582 0.06873,-0.155546 0.09043,-0.383439 0.0072,-0.043408 0.0072,-0.1049031 0,-0.065112 0.0036,-0.097668 0.0036,-0.036174 0.01085,-0.065112 0.0072,-0.028939 0.02532,-0.043408 0.01809,-0.014469 0.05788,-0.014469 0.09767,0 0.09405,0.1266072 0,0.2206583 -0.05064,0.4485513 -0.05064,0.2242756 -0.227893,0.4304644 -0.173633,0.2025716 -0.430465,0.2025716 -0.325561,0 -0.549837,-0.2315103 -0.220658,-0.2351277 -0.220658,-0.5570717 0,-0.083199 0.10852,-0.9260413 0.112138,-0.8428422 0.112138,-0.9839188 0,-0.4883421 -0.282153,-0.4883421 -0.05064,0 -0.112138,0.021704 -0.05788,0.021704 -0.144694,0.086816 -0.0832,0.061495 -0.151928,0.2206583 -0.06511,0.1591633 -0.08682,0.3906736 0,0.028939 -0.0036,0.090434 -0.0036,0.057878 -0.0072,0.090434 -0.0036,0.032556 -0.01085,0.06873 -0.0072,0.036174 -0.02532,0.057878 -0.01809,0.018087 -0.05788,0.018087 -0.09405,0 -0.09405,-0.1338419 z m 0.871781,-2.1306183 q -0.09405,-0.1012858 -0.09405,-0.2315104 0,-0.1338419 0.09767,-0.238745 0.101286,-0.1049031 0.242363,-0.1049031 0.148311,0 0.242362,0.1049031 0.09767,0.1049031 0.09767,0.2351277 0,0.1266072 -0.101286,0.2315103 -0.09767,0.1049031 -0.238745,0.1049031 -0.148312,0 -0.24598,-0.1012857 z"
         style="font-family:'CMU Serif Upright Italic';-inkscape-font-specification:'CMU Serif Upright Italic, '"
         id="path86822" />
      <path
         d="m 51.146538,11.498084 h 0.61495 V 4.4297851 h -0.61495 V 4.2597697 h 1.121378 V 11.6681 h -1.121378 z"
         style="font-family:'CMU Serif Upright Italic';-inkscape-font-specification:'CMU Serif Upright Italic, '"
         id="path86824" />
      <path
         d="m 56.955999,7.9639347 q 0,-0.043408 0.03617,-0.06873 0.03979,-0.028939 0.180867,-0.094051 l 4.015257,-1.8376131 q 0.133842,-0.065112 0.184485,-0.065112 0.0832,0 0.0832,0.072347 0,0.065112 -0.180868,0.1410766 l -3.613731,1.6531283 q -0.361735,0.1700154 -0.430464,0.1989542 0.141076,0.057877 0.42323,0.1917194 l 3.620965,1.6603631 0.03979,0.014469 q 0.03617,0.014469 0.0615,0.028939 0.02532,0.014469 0.05064,0.039791 0.02894,0.028939 0.02894,0.057878 0,0.072347 -0.0832,0.072347 -0.05064,0 -0.184485,-0.065113 L 57.17304,8.1267153 Q 56.970469,8.0073428 56.955999,7.9639347 Z"
         style="font-family:'CMU Serif Upright Italic';-inkscape-font-specification:'CMU Serif Upright Italic, '"
         id="path86826" />
      <path
         d="m 65.61955,9.8160172 v -0.227893 q 0.238745,-0.00723 0.401525,-0.057878 0.162781,-0.05426 0.253215,-0.1627807 0.09405,-0.1085204 0.126607,-0.1700154 0.03256,-0.061495 0.07596,-0.1953368 0.0072,-0.021704 0.01809,-0.039791 l 1.472261,-4.2720887 q 0.06511,-0.1772501 0.184485,-0.1772501 0.119372,0 0.184485,0.1772501 l 1.59525,4.575946 q 0.07235,0.2134235 0.202572,0.2676838 0.130224,0.05426 0.524515,0.05426 h 0.03617 v 0.227893 q -0.42323,-0.021704 -0.958598,-0.021704 -0.53175,0 -1.077969,0.021704 v -0.227893 h 0.02894 q 0.575159,0 0.575159,-0.2134236 0,-0.086816 -0.405143,-1.2479853 h -1.830379 q -0.3545,1.0237097 -0.3545,1.0815873 0,0.050643 0.0217,0.1085204 0.0217,0.05426 0.07235,0.1193725 0.05426,0.061495 0.170016,0.1012858 0.119372,0.039791 0.282153,0.050643 v 0.227893 q -0.430465,-0.021704 -0.857312,-0.021704 -0.40876,0 -0.741556,0.021704 z m 1.479495,-1.9171948 h 1.674833 L 67.93827,5.4896682 Z"
         style="font-family:'CMU Serif Upright Italic';-inkscape-font-specification:'CMU Serif Upright Italic, '"
         id="path86828" />
      <path
         d="M 72.11269,11.6681 V 4.2597697 h 1.121378 v 0.1700154 h -0.622184 v 7.0682989 h 0.622184 V 11.6681 Z"
         style="font-family:'CMU Serif Upright Italic';-inkscape-font-specification:'CMU Serif Upright Italic, '"
         id="path86830" />
      <path
         d="m 73.599419,10.770997 q 0,-0.155546 0.09767,-0.249597 0.101286,-0.09043 0.242362,-0.09043 0.141077,0 0.238745,0.09405 0.101286,0.09767 0.101286,0.24598 0,0.238745 -0.249597,0.325562 0.19172,0.07235 0.303857,0.07596 0.253215,0 0.452169,-0.235128 0.198954,-0.23151 0.198954,-0.795816 V 7.5262355 q 0,-0.8139035 -0.376204,-0.8139035 -0.206189,0 -0.361735,0.1519287 -0.151929,0.1519286 -0.217041,0.3291787 -0.06149,0.1772501 -0.104903,0.3472655 l -0.04341,0.1700154 q -0.0217,0.036173 -0.06873,0.043408 -0.04341,0.00362 -0.07235,-0.028939 -0.0217,-0.028939 -0.0072,-0.1772501 0.0832,-0.4159951 0.303857,-0.7090004 0.220658,-0.2966225 0.593245,-0.2966225 0.289388,0 0.578776,0.2278929 0.293005,0.2242756 0.293005,0.7270871 v 2.5864047 q 0,0.549837 -0.271301,0.857312 -0.340031,0.401525 -0.875398,0.401525 -0.311092,0 -0.535368,-0.159163 -0.220658,-0.159163 -0.220658,-0.412378 z m 1.316715,-5.2777114 q -0.09405,-0.1012858 -0.09405,-0.2315104 0,-0.1338419 0.09405,-0.238745 0.09767,-0.1049031 0.238745,-0.1049031 0.148311,0 0.242362,0.1049031 0.09767,0.1049031 0.09767,0.2351277 0,0.1266072 -0.09767,0.2315103 -0.09405,0.1049031 -0.235128,0.1049031 -0.148311,0 -0.245979,-0.1012857 z"
         style="font-family:'CMU Serif Upright Italic';-inkscape-font-specification:'CMU Serif Upright Italic, '"
         id="path86832" />
      <path
         d="M 76.424571,11.498084 H 77.03952 V 4.4297851 H 76.424571 V 4.2597697 h 1.121378 V 11.6681 h -1.121378 z"
         style="font-family:'CMU Serif Upright Italic';-inkscape-font-specification:'CMU Serif Upright Italic, '"
         id="path86834" />
      <path
         d="m 79.141198,6.2456941 q 0,-0.6438881 0.390674,-1.1864904 0.394291,-0.5462196 1.038179,-0.5462196 0.517281,0 0.875398,0.3545001 0.361735,0.3545002 0.361735,0.8681637 0,0.4159951 -0.256832,0.7451738 -0.09767,0.1193725 -1.059883,1.0020056 -0.213423,0.1917195 -0.217041,0.3906736 0,0.155546 0.09405,0.2713012 0.09405,0.1157551 0.231511,0.1157551 0.155546,0 0.307474,-0.1193725 0.151929,-0.1193725 0.19172,-0.3617348 0.0217,-0.1193725 0.101286,-0.1193725 0.0832,0 0.0832,0.1266072 0,0.2278929 -0.209807,0.4376992 -0.206189,0.2061888 -0.488342,0.2061888 -0.253214,0 -0.437699,-0.2025715 -0.184485,-0.2061889 -0.184485,-0.5172808 0,-0.3617349 0.311092,-0.6438881 0.148312,-0.1338419 0.350883,-0.3183267 0.206189,-0.1844848 0.296623,-0.2640664 0.09405,-0.083199 0.217041,-0.2061889 0.122989,-0.1229898 0.170015,-0.1881021 0.04703,-0.06873 0.101286,-0.1627807 0.05788,-0.097668 0.07235,-0.1772501 0.01447,-0.083199 0.01447,-0.1881021 0,-0.3400308 -0.260449,-0.6113319 -0.256832,-0.2749185 -0.665592,-0.2749185 -0.495577,0 -0.817521,0.3906736 -0.321944,0.3870563 -0.397908,0.8971025 0.04341,-0.014469 0.126607,-0.014469 0.155546,0 0.24598,0.1012857 0.09405,0.097669 0.09405,0.2387451 0,0.1410765 -0.101286,0.238745 -0.09767,0.094051 -0.238745,0.094051 -0.126607,0 -0.235128,-0.083199 -0.104903,-0.086816 -0.104903,-0.2930052 z m 1.153934,3.4509505 q -0.10852,-0.1193725 -0.10852,-0.2749184 0,-0.155546 0.112138,-0.2713012 0.115755,-0.1193725 0.278536,-0.1193725 0.170015,0 0.282153,0.1193725 0.112138,0.1157552 0.112138,0.2713012 0,0.1555459 -0.115756,0.2749184 -0.115755,0.1193726 -0.278535,0.1193726 -0.170016,0 -0.282154,-0.1193726 z"
         style="font-family:'CMU Serif Upright Italic';-inkscape-font-specification:'CMU Serif Upright Italic, '"
         id="path86836" />
    </g>
    <g
       inkscape:groupmode="layer"
       id="layer4"
       inkscape:label="Condition Result">
      <path
         style="display:none;fill:none;stroke:#00a400;stroke-width:0.529167;stroke-linecap:round;stroke-linejoin:round;stroke-miterlimit:4;stroke-dasharray:none;stroke-opacity:1;paint-order:normal"
         d="m 85.783429,8.3508603 1.869236,1.4652686 2.922766,-4.7783956"
         id="path82401"
         sodipodi:nodetypes="ccc"
         inkscape:label="Condition Result Tick" />
      <path
         style="display:none;fill:none;stroke:#c40000;stroke-width:0.529167;stroke-linecap:round;stroke-linejoin:round;stroke-miterlimit:4;stroke-dasharray:none;stroke-opacity:1"
         d="m 86.167075,5.5728964 2.042997,2.0429977 2.043002,-2.0429977 -2.043002,2.0429977 2.043002,2.042996 -2.043002,-2.042996 -2.042997,2.042996"
         id="path83853"
         sodipodi:nodetypes="ccccccc"
         inkscape:label="Condition Result Cross" />
      <path
         sodipodi:type="spiral"
         style="display:none;fill:none;fill-rule:evenodd;stroke:#000000"
         id="path86623"
         sodipodi:cx="367.63223"
         sodipodi:cy="52.20163"
         sodipodi:expansion="1"
         sodipodi:revolution="3"
         sodipodi:radius="6.6364493"
         sodipodi:argument="-17.229445"
         sodipodi:t0="0"
         d="m 367.63223,52.20163 c -0.0164,0.332336 -0.45607,0.141852 -0.55236,-0.02726 -0.26094,-0.458291 0.1722,-0.962367 0.60689,-1.077469 0.77754,-0.20589 1.48369,0.448917 1.60257,1.186517 0.17445,1.082456 -0.72722,2.014489 -1.76615,2.127674 -1.38472,0.150858 -2.54895,-1.005798 -2.65277,-2.345771 -0.13065,-1.686219 1.28444,-3.085244 2.92539,-3.17788 1.98742,-0.112195 3.62258,1.56311 3.70299,3.505025 0.0948,2.28848 -1.84179,4.160567 -4.08465,4.228086 -2.58948,0.07795 -4.69899,-2.120475 -4.75319,-4.664279 -0.0616,-2.890431 2.39917,-5.23772 5.2439,-5.278292 3.19137,-0.04552 5.77668,2.677867 5.8034,5.823533 0.0297,3.492286 -2.95657,6.315792 -6.40316,6.328499"
         transform="matrix(0.39802023,0,0,0.39802023,-58.114994,-13.161411)"
         inkscape:label="Condition Result Wait" />
    </g>
  </g>
</svg>
